<svg width="17.000000" height="18.000000" viewBox="0 0 17 18" fill="none" xmlns="http://www.w3.org/2000/svg" xmlns:xlink="http://www.w3.org/1999/xlink">
	<desc>
			Created with Pixso.
	</desc>
	<defs/>
	<rect id="Icon" width="17.000000" height="18.000000" fill="#4295E4" fill-opacity="1.000000"/>
	<g opacity="0.900000">
		<path id="Icon" d="M6.71 11.87L4.1 9.26C4.03 9.19 4 9.09 4 8.98C4 8.86 4.03 8.77 4.1 8.7L4.68 8.13C4.76 8.05 4.85 8.01 4.96 8.01C5.07 8.01 5.16 8.05 5.25 8.13L7 9.89L10.75 6.12C10.83 6.04 10.92 6 11.03 6C11.14 6 11.23 6.04 11.31 6.12L11.89 6.69C11.96 6.76 12 6.85 12 6.97C12 7.08 11.96 7.18 11.89 7.25L7.28 11.87C7.2 11.95 7.11 12 7 12C6.88 12 6.79 11.95 6.71 11.87Z" fill="#FFFFFF" fill-opacity="1.000000" fill-rule="nonzero"/>
	</g>
</svg>
